Coordinates
version=1
nRows=26
nColumns=24
inDegrees=yes

Units are S.I. units (second, meters, Newtons, ...)
Angles are in degrees.

endheader
time	pelvis_tilt	pelvis_list	pelvis_rotation	pelvis_tx	pelvis_ty	pelvis_tz	hip_flexion_r	hip_adduction_r	hip_rotation_r	knee_angle_r	ankle_angle_r	subtalar_angle_r	mtp_angle_r	hip_flexion_l	hip_adduction_l	hip_rotation_l	knee_angle_l	ankle_angle_l	subtalar_angle_l	mtp_angle_l	lumbar_extension	lumbar_bending	lumbar_rotation
      1.90500000	     26.64509711	     -2.64411620	      1.31186237	      0.35480745	      0.92167006	      0.03204956	    -30.50241484	      4.32662954	     15.57232110	      5.18816573	      1.08790070	     -9.11539943	     28.76254340	    -16.97371169	     -1.56157924	     -1.06200020	    -51.55438325	     -6.42047525	    -25.55731278	     24.18300165	    -31.47834494	      5.29924703	      5.67912039
      1.91000000	     26.65819928	     -2.44709349	      1.20834473	      0.36002720	      0.92183130	      0.03243919	    -31.06274979	      4.06340032	     15.65108454	      5.53237370	      1.22403244	     -8.97274500	     28.63093437	    -16.34989723	     -1.19603917	     -0.78418044	    -50.83214486	     -5.51961211	    -25.42319840	     24.22255389	    -31.52057020	      5.00959199	      5.69473838
      1.91500000	     26.66050357	     -2.26407523	      1.11647649	      0.36524532	      0.92190980	      0.03278673	    -31.61274375	      3.81294336	     15.77630475	      5.88365619	      1.33679002	     -8.91706320	     28.50607883	    -15.72841382	     -0.84298623	     -0.48868045	    -50.03419181	     -4.67578896	    -25.33687022	     24.25222956	    -31.55105188	      4.74230716	      5.70254750
      1.92000000	     26.66821331	     -2.09337182	      1.03657723	      0.37042835	      0.92191974	      0.03310174	    -32.16947507	      3.57414881	     15.93725130	      6.24677477	      1.41549370	     -8.93638905	     28.36794462	    -15.12645476	     -0.49802439	     -0.15320066	    -49.16812149	     -3.85453719	    -25.24086285	     24.27217723	    -31.59365467	      4.49252766	      5.69861545
      1.92500000	     26.67121455	     -1.93698804	      0.96458492	      0.37562990	      0.92183593	      0.03339239	    -32.73055101	      3.34740775	     16.11570222	      6.63231933	      1.49987610	     -9.01154689	     28.25033279	    -14.53537945	     -0.17078659	      0.19091434	    -48.24114652	     -3.09942236	    -25.20612961	     24.28129197	    -31.62889148	      4.26083118	      5.70021497
      1.93000000	     26.67689426	     -1.79681749	      0.90509908	      0.38079088	      0.92169335	      0.03365270	    -33.28695539	      3.13749731	     16.33476623	      7.00952389	      1.54386611	     -9.15311312	     28.12496196	    -13.96331955	      0.13888952	      0.56906399	    -47.24704085	     -2.38527275	    -25.19084906	     24.27245583	    -31.67284587	      4.05207458	      5.68161386
      1.93500000	     26.63341370	     -1.69367577	      0.84607104	      0.38598871	      0.92141337	      0.03388054	    -33.77547025	      2.96120796	     16.54885448	      7.35552243	      1.68359082	     -9.20218957	     28.08779602	    -13.34740529	      0.40253908	      0.91627897	    -46.21848304	     -1.72904263	    -25.32773214	     24.28030940	    -31.66248737	      3.88421232	      5.68831106
      1.94000000	     26.68247023	     -1.55237540	      0.82492325	      0.39113857	      0.92116548	      0.03405836	    -34.40501050	      2.76204234	     16.71908344	      7.79310703	      1.67693852	     -9.45997993	     27.98131469	    -12.86316817	      0.70726607	      1.37969417	    -45.09608667	     -1.18294323	    -25.37738605	     24.25138572	    -31.75442395	      3.69240295	      5.66771141
      1.94500000	     26.66991928	     -1.47764451	      0.78150367	      0.39623478	      0.92078234	      0.03422066	    -34.94667436	      2.60127437	     17.06589053	      8.21141144	      1.59428746	     -9.94959937	     27.78929735	    -12.31813981	      0.94351183	      1.79748657	    -43.94395466	     -0.67969574	    -25.65407166	     24.10290754	    -31.79186274	      3.56413959	      5.66801306
      1.95000000	     26.62792563	     -1.41140838	      0.75160589	      0.40139621	      0.92029757	      0.03440020	    -35.42291496	      2.47518595	     17.23403201	      8.53486216	      1.77843862	     -9.99998810	     27.77756127	    -11.75705277	      1.14623517	      2.21492025	    -42.75991093	     -0.16671841	    -25.80896606	     24.09333513	    -31.79104197	      3.44328075	      5.66447847
      1.95500000	     26.67411336	     -1.31116837	      0.76421557	      0.40649332	      0.91986557	      0.03447122	    -36.02225716	      2.33396792	     17.33590653	      8.92041595	      1.78689216	    -10.20843980	     27.71813335	    -11.33053079	      1.39187019	      2.75302424	    -41.46807413	      0.14146009	    -26.09805815	     24.01190776	    -31.89288452	      3.31294948	      5.61187733
      1.96000000	     26.66689817	     -1.25367730	      0.76678839	      0.41159514	      0.91930256	      0.03454641	    -36.54944162	      2.22718206	     17.48456807	      9.28277783	      1.83911255	    -10.44213245	     27.66325643	    -10.85675848	      1.58485648	      3.26849710	    -40.15339892	      0.38868843	    -26.55690209	     23.89251661	    -31.93689381	      3.22220278	      5.58792429
      1.96500000	     26.65667049	     -1.22327463	      0.77879908	      0.41667488	      0.91866612	      0.03458843	    -37.06150390	      2.15245986	     17.60545594	      9.62269366	      1.92741390	    -10.61994742	     27.62554364	    -10.39398332	      1.73539592	      3.79247768	    -38.80886394	      0.60672792	    -27.02626484	     23.77252136	    -31.98356976	      3.16520895	      5.58372950
      1.97000000	     26.63091453	     -1.21541644	      0.80004868	      0.42174630	      0.91796846	      0.03461253	    -37.54275072	      2.10989358	     17.69685246	      9.93232558	      2.03061397	    -10.74897770	     27.59537604	     -9.93543740	      1.85241920	      4.34071553	    -37.41892190	      0.74550082	    -27.56724785	     23.63404400	    -32.01606975	      3.13434497	      5.57991542
      1.97500000	     26.60960741	     -1.21528240	      0.83282367	      0.42681859	      0.91721671	      0.03461349	    -38.02019878	      2.08897116	     17.73131107	     10.21794972	      2.16350915	    -10.82086401	     27.57370263	     -9.50617507	      1.94524204	      4.90506677	    -35.98255400	      0.85321928	    -28.08647088	     23.50832939	    -32.05420918	      3.11599193	      5.56008192
      1.98000000	     26.58307185	     -1.23962869	      0.87372359	      0.43186934	      0.91640048	      0.03459943	    -38.47956134	      2.10104145	     17.74302094	     10.47871689	      2.32609939	    -10.84338925	     27.55223467	     -9.08859013	      1.99866267	      5.48384852	    -34.51338592	      0.89968263	    -28.65731163	     23.38017651	    -32.09081445	      3.12565289	      5.54940636
      1.98500000	     26.53967533	     -1.28863540	      0.91759449	      0.43690560	      0.91551909	      0.03455128	    -38.90521989	      2.13898513	     17.75260474	     10.70974903	      2.52066360	    -10.79555318	     27.51967524	     -8.67447497	      2.01784251	      6.08114172	    -33.00411478	      0.87355853	    -29.31559834	     23.24517159	    -32.11358511	      3.16611610	      5.54151537
      1.99000000	     26.49199492	     -1.33749417	      0.98688300	      0.44197090	      0.91458600	      0.03447670	    -39.32423197	      2.20679414	     17.66192115	     10.92339018	      2.72096117	    -10.74324529	     27.47821165	     -8.27899624	      2.01561202	      6.71464116	    -31.45983201	      0.83736437	    -29.85026987	     23.15060633	    -32.12692124	      3.21270752	      5.53244819
      1.99500000	     26.43302169	     -1.41671805	      1.05448586	      0.44700839	      0.91359026	      0.03437723	    -39.71085616	      2.30289582	     17.59441752	     11.09908684	      2.96233510	    -10.62653734	     27.42153357	     -7.89338371	      1.97148328	      7.35424509	    -29.87478392	      0.72194633	    -30.49390647	     23.05756468	    -32.13369055	      3.29366422	      5.52668454
      2.00000000	     26.35689761	     -1.51654544	      1.13382948	      0.45205720	      0.91252866	      0.03426423	    -40.06818458	      2.43273578	     17.50201261	     11.24852248	      3.22560516	    -10.48290883	     27.34674658	     -7.50774732	      1.88786195	      8.01139047	    -28.26603233	      0.58702211	    -31.12151970	     22.99135038	    -32.12076232	      3.39788871	      5.52429033
      2.00500000	     26.27039074	     -1.63809643	      1.21592144	      0.45709957	      0.91140413	      0.03412606	    -40.40484125	      2.58411049	     17.41844579	     11.38097947	      3.51094862	    -10.28090413	     27.24151271	     -7.13337146	      1.77002799	      8.69287800	    -26.62369385	      0.36525956	    -31.81752273	     22.94613087	    -32.09853641	      3.52598247	      5.53576318
      2.01000000	     26.17007060	     -1.77987285	      1.30993013	      0.46214559	      0.91021879	      0.03396189	    -40.71204271	      2.76822481	     17.32068650	     11.47999630	      3.81310643	    -10.08595092	     27.11324657	     -6.76055395	      1.61288002	      9.38232546	    -24.96340957	      0.13286206	    -32.48532394	     22.93596808	    -32.06206931	      3.67970666	      5.54701509
      2.01500000	     26.06456877	     -1.94255619	      1.40540682	      0.46718684	      0.90897462	      0.03378989	    -41.00948858	      2.96821256	     17.26167881	     11.57351720	      4.14572161	     -9.82252235	     26.94037538	     -6.40421891	      1.42024187	     10.09752193	    -23.27356862	     -0.19762037	    -33.26232650	     22.96404709	    -32.02099228	      3.85264929	      5.55506141
      2.02000000	     25.92590104	     -2.12694649	      1.51372616	      0.47224590	      0.90765967	      0.03356315	    -41.25557374	      3.19952089	     17.19108268	     11.63153037	      4.48433324	     -9.58039471	     26.73730376	     -6.02658512	      1.18986134	     10.82498933	    -21.57157798	     -0.56092087	    -34.02765104	     23.03866499	    -31.94246170	      4.05904137	      5.56892385
      2.02500000	     25.77808403	     -2.33039493	      1.62486739	      0.47734002	      0.90628969	      0.03336240	    -41.47704764	      3.46240795	     17.10233803	     11.65008687	      4.83625293	     -9.36871277	     26.53418706	     -5.65548037	      0.91758670	     11.54106096	    -19.86241382	     -0.93698089	    -34.78541249	     23.13951419	    -31.84906834	      4.27670355	      5.60949095
      2.03000000	     25.63269481	     -2.55498815	      1.73615567	      0.48239773	      0.90487776	      0.03311995	    -41.69949890	      3.72904250	     17.09802991	     11.67719278	      5.20169668	     -9.11458901	     26.29618408	     -5.30070085	      0.61199683	     12.26727149	    -18.14353895	     -1.42158240	    -35.64072075	     23.29324588	    -31.76494655	      4.52114222	      5.63019594
